<svg xmlns="http://www.w3.org/2000/svg" viewBox="0 0 1440 320"><path fill="#0099ff" fill-opacity="1" d="M0,128L30,138.7C60,149,120,171,180,197.3C240,224,300,256,360,266.7C420,277,480,267,540,234.7C600,203,660,149,720,138.7C780,128,840,160,900,192C960,224,1020,256,1080,272C1140,288,1200,288,1260,256C1320,224,1380,160,1410,128L1440,96L1440,0L1410,0C1380,0,1320,0,1260,0C1200,0,1140,0,1080,0C1020,0,960,0,900,0C840,0,780,0,720,0C660,0,600,0,540,0C480,0,420,0,360,0C300,0,240,0,180,0C120,0,60,0,30,0L0,0Z"></path></svg>